<?xml version="1.0" encoding="UTF-8" standalone="no"?>
<!-- Created with Inkscape (http://www.inkscape.org/) -->

<svg
   width="500"
   height="500"
   viewBox="0 0 132.29166 132.29167"
   version="1.1"
   id="svg1"
   inkscape:version="1.3.2 (091e20e, 2023-11-25, custom)"
   sodipodi:docname="LaBelleFrance.svg"
   xml:space="preserve"
   inkscape:export-filename="LaBelleFrance.png"
   inkscape:export-xdpi="96"
   inkscape:export-ydpi="96"
   xmlns:inkscape="http://www.inkscape.org/namespaces/inkscape"
   xmlns:sodipodi="http://sodipodi.sourceforge.net/DTD/sodipodi-0.dtd"
   xmlns="http://www.w3.org/2000/svg"
   xmlns:svg="http://www.w3.org/2000/svg"><sodipodi:namedview
     id="namedview1"
     pagecolor="#ffffff"
     bordercolor="#000000"
     borderopacity="0.25"
     inkscape:showpageshadow="2"
     inkscape:pageopacity="0.0"
     inkscape:pagecheckerboard="0"
     inkscape:deskcolor="#d1d1d1"
     inkscape:document-units="mm"
     inkscape:zoom="1.554"
     inkscape:cx="250.32175"
     inkscape:cy="250"
     inkscape:window-width="1920"
     inkscape:window-height="991"
     inkscape:window-x="-9"
     inkscape:window-y="-9"
     inkscape:window-maximized="1"
     inkscape:current-layer="layer1"
     showguides="true" /><defs
     id="defs1"><filter
       inkscape:collect="always"
       style="color-interpolation-filters:sRGB"
       id="filter3"
       x="-0.059207486"
       y="-0.61396293"
       width="1.118415"
       height="2.2279259"><feGaussianBlur
         inkscape:collect="always"
         stdDeviation="2.0700264"
         id="feGaussianBlur3" /></filter></defs><g
     inkscape:label="Layer 1"
     inkscape:groupmode="layer"
     id="layer1"><g
       id="g3"><circle
         style="fill:#ff0000;stroke-width:1.2;stroke-linejoin:bevel;stroke-miterlimit:12.5;paint-order:markers stroke fill"
         id="path2"
         cx="66.145836"
         cy="60.782661"
         r="40" /><circle
         style="fill:#0044aa;stroke-width:1.2;stroke-linejoin:bevel;stroke-miterlimit:12.5;paint-order:markers stroke fill"
         id="circle2"
         cx="66.145836"
         cy="60.782661"
         r="35" /><path
         style="fill:#f9f9f9;stroke-width:0.999998"
         d="m 64.817508,89.758418 c -0.08029,-0.02363 -0.4416,-0.128517 -0.802909,-0.23308 -1.146654,-0.331856 -2.506942,-1.138783 -3.57082,-2.118228 -0.402741,-0.37078 -0.783465,-0.594314 -1.012217,-0.594314 -0.201665,0 -0.517564,-0.05622 -0.701996,-0.124837 -0.184432,-0.06862 -0.729487,-0.243901 -1.211233,-0.389435 -1.906892,-0.576059 -3.80828,-2.046186 -4.724465,-3.652889 -0.444319,-0.779198 -1.03114,-2.304207 -1.038294,-2.698284 -0.002,-0.10874 -0.228091,-0.441795 -0.502483,-0.740122 -0.495241,-0.538441 -0.892467,-1.141354 -0.751975,-1.141354 0.04029,0 0.394549,0.274237 0.787242,0.609416 1.756865,1.499553 3.358717,2.438831 4.873583,2.857721 0.77057,0.213077 3.797652,0.228392 4.495037,0.02274 0.963926,-0.28425 3.233296,-1.470431 3.649588,-1.907608 0.441346,-0.463489 2.061413,-1.72492 2.212188,-1.722474 0.108096,0.0018 0.360771,0.129371 0.561499,0.283595 0.200726,0.154224 0.407917,0.281842 0.460421,0.283596 0.0525,0.0018 0.479507,0.215633 0.948893,0.475286 0.974038,0.538816 3.309739,1.559036 4.284042,1.871244 1.228242,0.39358 3.018211,0.667908 4.32108,0.66224 1.678135,-0.0073 3.991888,-0.488321 5.739858,-1.193296 0.515334,-0.207839 0.967046,-0.348347 1.003806,-0.31224 0.100637,0.09885 -1.778554,2.118837 -2.642787,2.840792 -1.043469,0.871684 -3.601311,2.592914 -3.703724,2.492319 -0.04609,-0.04527 0.138037,-0.295645 0.409167,-0.556388 0.746796,-0.718184 1.587817,-1.720862 1.588032,-1.893273 1.28e-4,-0.103094 -0.562607,-0.137159 -1.715306,-0.103835 -0.951715,0.02752 -2.072972,-0.02408 -2.518407,-0.115889 -3.018561,-0.622143 -3.522625,-0.759563 -4.797475,-1.307918 -1.289857,-0.554808 -1.995528,-0.917157 -2.998491,-1.539674 l -1.007734,-0.625476 -0.56854,0.653329 c -1.149777,1.321246 -3.434312,2.708699 -5.080126,3.085282 -0.888599,0.203324 -3.394816,0.15413 -4.233522,-0.0831 -0.684817,-0.1937 -1.879835,-0.734479 -2.361982,-1.068863 -0.600111,-0.416194 -0.596447,-0.121268 0.01015,0.817657 0.460041,0.712066 1.126853,1.399531 2.002786,2.064822 0.58186,0.441934 2.688689,1.223578 3.012365,1.1176 0.111506,-0.03651 0.162695,-0.259851 0.134148,-0.585305 -0.02539,-0.289448 -0.0027,-0.526269 0.05058,-0.526269 0.05321,0 0.435971,0.340902 0.85059,0.75756 1.665539,1.673732 2.993886,2.429913 4.963598,2.825611 1.484534,0.298221 3.8056,-0.294385 6.50749,-1.6615 0.83839,-0.42421 1.5586,-0.737645 1.600467,-0.696522 0.04187,0.04111 -0.413248,0.544455 -1.011368,1.118521 -2.10526,2.020569 -3.887521,2.82922 -6.186913,2.807123 -0.647827,-0.0059 -1.24356,-0.03064 -1.323851,-0.05427 z M 78.904916,78.639443 c -0.120437,-0.07645 -0.367675,-0.139989 -0.549419,-0.141197 -0.181744,-0.0012 -0.444514,-0.06053 -0.583934,-0.131823 -0.13942,-0.0713 -0.762607,-0.361665 -1.384863,-0.645265 -0.622254,-0.283599 -1.640489,-0.748802 -2.262744,-1.033783 -1.503898,-0.688756 -2.710064,-1.145541 -4.509523,-1.707789 -0.739689,-0.23112 -0.76225,-0.229178 -1.573649,0.135375 -0.686169,0.308289 -1.035111,0.369508 -2.09623,0.367769 -0.750643,-0.0013 -1.531601,-0.09055 -1.903157,-0.217664 -0.34657,-0.118567 -0.707879,-0.170171 -0.802909,-0.114674 -0.09503,0.0555 -0.698322,0.433011 -1.34065,0.83892 -0.642327,0.405909 -1.397792,0.861742 -1.67881,1.012961 -0.281019,0.15122 -0.543789,0.309356 -0.583934,0.351414 -0.06544,0.06856 -1.058634,0.476335 -2.481719,1.018912 -0.319657,0.121873 -1.112129,0.194869 -2.116762,0.194976 l -1.605818,1.71e-4 -1.313851,-0.642004 c -1.125108,-0.549776 -1.531162,-0.857995 -2.826555,-2.145521 -1.52696,-1.517688 -1.723333,-1.921478 -0.59387,-1.221135 0.995385,0.617205 2.809346,1.488392 2.937322,1.410703 0.06498,-0.03944 0.117972,-0.503467 0.117762,-1.031155 -3.95e-4,-0.993236 0.318667,-2.620836 0.672969,-3.432948 0.46146,-1.057732 0.683237,-1.476339 0.748303,-1.412427 0.03785,0.03718 -0.01138,0.508425 -0.109414,1.047215 -0.287858,1.582164 -0.02494,5.171622 0.404462,5.521835 0.327217,0.266873 3.554019,0.249582 4.415368,-0.02366 1.008269,-0.31985 3.137867,-1.419281 3.740831,-1.931249 L 62.16407,74.248938 61.740479,73.863134 61.316888,73.47733 h 0.615984 c 0.747894,0 1.618921,0.321991 2.590721,0.957709 1.118682,0.731804 2.303931,0.633633 3.346905,-0.277216 0.528268,-0.461345 1.481782,-0.823885 2.166899,-0.823885 0.816357,0 0.991749,0.18961 0.39862,0.430931 -0.239852,0.09759 -0.436095,0.221929 -0.436095,0.276317 0,0.05439 0.344887,0.182703 0.766413,0.285143 2.010325,0.488554 2.294444,0.592721 4.634977,1.699336 2.785136,1.316825 3.478916,1.523723 5.109422,1.523723 1.596096,0 2.360684,-0.219122 4.792675,-1.373523 2.106656,-0.999973 2.144917,-0.861196 0.167487,0.607484 -1.51515,1.125333 -1.854032,1.314049 -3.04999,1.698466 -1.003722,0.322627 -3.10748,0.416944 -3.51599,0.15763 z M 81.3876,75.767659 c 0.0015,-1.428628 -0.39013,-4.069553 -0.815174,-5.497272 -0.324767,-1.09089 -0.275947,-1.216077 0.271129,-0.695243 0.473796,0.451069 1.055806,1.458336 1.450091,2.509624 l 0.203739,0.543233 0.310263,-0.686626 c 0.563081,-1.246127 0.914723,-2.515033 0.914723,-3.300792 0,-1.550592 -0.549741,-1.731845 -1.813029,-0.597766 -0.44807,0.402241 -0.814674,0.640989 -0.814674,0.53055 0,-0.110439 0.06537,-0.265012 0.145277,-0.343495 0.0799,-0.07848 0.213902,-0.972815 0.297779,-1.9874 0.08388,-1.014587 0.181185,-1.890291 0.216245,-1.946012 0.03506,-0.05572 0.07179,-0.784651 0.08164,-1.619848 0.02085,-1.7686 -0.1586,-2.159593 -1.213121,-2.643328 -0.858609,-0.393864 -2.89511,-0.84267 -4.491257,-0.989787 -0.4416,-0.0407 -0.868602,-0.138685 -0.948893,-0.217739 -0.164014,-0.161487 5.268174,-0.0698 5.942299,0.1003 0.375075,0.09464 0.420419,0.04662 0.902139,-0.955434 l 0.507212,-1.055083 0.01026,1.165966 c 0.0102,1.1595 0.01309,1.168088 0.5212,1.548762 0.438674,0.328653 0.510943,0.466632 0.510943,0.975509 0,0.540689 -0.234719,1.641566 -0.591145,2.772588 -0.07633,0.242196 -0.138773,0.612297 -0.138773,0.822447 0,0.210149 -0.07922,0.673007 -0.176033,1.028574 -0.137388,0.504561 -0.137388,0.684443 0,0.819393 0.136915,0.134484 0.214962,0.13467 0.351213,8.37e-4 0.224454,-0.22047 0.855134,-0.213985 1.140679,0.01173 0.619905,0.490015 0.797264,1.007509 0.784708,2.289604 -0.01117,1.140092 -0.06051,1.350401 -0.54071,2.304782 -0.290633,0.577618 -0.859034,1.399757 -1.263116,1.826979 -0.599332,0.633656 -0.734692,0.871727 -0.734692,1.292185 0,0.575558 -0.500812,2.190139 -0.816782,2.633242 -0.185152,0.25965 -0.205008,0.197353 -0.204137,-0.640481 z M 49.982899,72.365615 c -1.168992,-1.209132 -1.880502,-2.783638 -1.880502,-4.16138 0,-0.845622 0.194163,-1.372743 0.711778,-1.93236 0.571403,-0.617772 1.101192,-0.536792 1.906266,0.291379 0.649778,0.668419 1.402052,1.866001 1.259873,2.005656 -0.03903,0.03834 -0.409097,-0.2289 -0.822364,-0.593867 -0.810151,-0.715465 -1.340963,-0.844355 -1.590581,-0.386218 -0.376644,0.691273 0.02247,2.780399 0.860816,4.505803 0.260543,0.53623 0.446203,1.001986 0.412577,1.035015 -0.03362,0.03303 -0.419665,-0.310783 -0.857863,-0.764028 z m 13.347153,-1.361801 c 0.09407,-0.766707 0.232923,-1.387491 0.392901,-1.756553 0.06837,-0.157731 0.156777,-0.383574 0.196455,-0.501873 0.03968,-0.118298 0.07732,0.247725 0.08366,0.813385 l 0.01153,1.028472 0.512287,0.166069 c 0.579691,0.187919 0.548713,0.42974 -0.05505,0.42974 -0.220789,0 -0.528952,0.09474 -0.684807,0.210528 -0.450262,0.334516 -0.536786,0.260718 -0.456977,-0.389768 z M 52.481903,68.149507 c 0,-0.09114 -0.164232,-0.377201 -0.364959,-0.635697 -0.205074,-0.264092 -0.364959,-0.661739 -0.364959,-0.907677 0,-0.401332 -0.107929,-0.956722 -0.448105,-2.3059 -0.234268,-0.92913 -0.914644,-3.081667 -1.019781,-3.226321 -0.488202,-0.671707 -0.173645,-1.767681 0.597381,-2.081381 0.252589,-0.102769 0.521679,-0.352397 0.601414,-0.557918 0.15498,-0.39947 0.05217,-2.705869 -0.163591,-3.669954 -0.334168,-1.493153 -0.639775,-2.593463 -0.754714,-2.71728 -0.06955,-0.07492 -0.126456,-0.242012 -0.126456,-0.371311 0,-0.234493 -0.558125,-0.567907 -0.95066,-0.567907 -0.203087,0 -1.320239,-0.330903 -1.896018,-0.561605 -0.160582,-0.06434 -0.456198,-0.183566 -0.656926,-0.264944 -0.200728,-0.08138 -1.021884,-0.459602 -1.824794,-0.840499 -1.213795,-0.575821 -1.644364,-0.876156 -2.554711,-1.781993 -1.060117,-1.054863 -1.223189,-1.325454 -1.729856,-2.870391 -0.383581,-1.169621 0.06516,-3.598924 0.876284,-4.743894 0.148301,-0.209339 0.269639,-0.426032 0.269639,-0.48154 0,-0.320308 1.68878,-2.094374 2.965751,-3.115528 2.248384,-1.797961 3.849528,-2.748984 5.75636,-3.419076 0.461894,-0.162318 0.971193,-0.347703 1.131774,-0.411968 3.017744,-1.207699 9.04499,-1.142027 13.430483,0.146338 1.013236,0.297668 1.402341,0.243158 3.211637,-0.449913 0.459256,-0.175924 2.476074,-0.419529 3.473071,-0.419502 2.176797,5.9e-5 4.854027,0.81027 6.916161,2.093042 1.364388,0.848731 2.424643,1.79389 3.277282,2.92152 0.389335,0.514902 0.774695,1.01412 0.856355,1.109373 0.08166,0.09525 0.148472,0.22919 0.148472,0.297637 0,0.169424 0.639327,0.748008 0.826539,0.748008 0.270229,0 2.711517,1.574228 3.625643,2.337943 2.393339,1.999535 4.014859,4.784524 4.014859,6.895584 0,1.432357 -0.993866,3.216716 -2.306407,4.140853 -0.944662,0.66512 -2.367213,1.319559 -3.678914,1.69247 -0.386106,0.109769 -0.939256,0.440754 -1.341773,0.802869 -0.376666,0.338859 -1.033592,0.776064 -1.459835,0.971566 -0.899616,0.412621 -2.660277,0.795656 -3.658097,0.795825 -1.14692,1.94e-4 -3.913535,-0.492872 -4.854017,-0.865082 -0.160581,-0.06355 -0.78393,-0.293572 -1.385219,-0.511154 -1.608772,-0.582147 -4.443323,-2.155125 -5.691519,-3.158397 -1.029036,-0.827114 -1.101962,-0.90502 -0.851482,-0.909618 0.13577,-0.0025 0.286686,0.05877 0.335369,0.136142 0.08232,0.130843 0.848515,0.506193 2.629413,1.288129 1.784841,0.783668 3.807572,1.414358 5.766347,1.797957 1.501294,0.294007 4.872404,0.287362 5.962857,-0.01176 1.357363,-0.372331 2.365656,-0.922129 3.244497,-1.769148 1.224937,-1.180585 1.811392,-2.18288 2.188391,-3.740131 0.361561,-1.493482 0.424852,-1.524962 0.354783,-0.17647 -0.06992,1.345712 -0.270792,2.48052 -0.519481,2.934822 -0.19504,0.356296 -0.168149,0.683058 0.05621,0.683058 0.15539,0 1.473068,-0.740357 2.230879,-1.253454 0.08835,-0.05983 0.416819,-0.461564 0.729917,-0.892754 0.55148,-0.759484 0.568962,-0.819979 0.559411,-1.935794 -0.01098,-1.283636 -0.344934,-2.168873 -1.381138,-3.661171 -0.769144,-1.107689 -3.78145,-3.871586 -4.219549,-3.871586 -0.08569,0 -0.155802,-0.05277 -0.155802,-0.117279 0,-0.0645 -0.494138,-0.371004 -1.098086,-0.681112 -0.951951,-0.488799 -1.157528,-0.666494 -1.544763,-1.335247 -0.526078,-0.908533 -0.550891,-0.9407 -1.590673,-2.062121 -1.54141,-1.662434 -3.46193,-2.596391 -5.834901,-2.837538 -1.539754,-0.156472 -4.163418,0.03001 -5.47882,0.389411 -1.12009,0.30604 -2.118573,0.30779 -3.173502,0.0056 -0.847107,-0.242689 -1.6823,-0.410744 -3.541739,-0.71266 -1.30259,-0.2115 -6.462772,-0.213919 -7.51815,-0.0035 -1.909721,0.380714 -2.429704,0.548155 -4.087538,1.316247 -2.557368,1.184855 -5.263284,3.578305 -6.16369,5.451941 -0.405553,0.843904 -0.455268,1.091934 -0.465542,2.322557 -0.0074,0.878744 0.05989,1.527937 0.185589,1.792401 0.563845,1.186235 0.710659,1.426381 1.184495,1.937498 0.704074,0.75947 1.290944,1.14459 2.996404,1.966323 1.340094,0.64569 2.011356,0.851666 4.315176,1.32411 1.330583,0.272862 4.601978,0.04032 6.998545,-0.497473 0.521891,-0.117114 1.14597,-0.253704 1.386843,-0.303534 0.240873,-0.04983 0.569336,-0.142319 0.729918,-0.205534 0.160581,-0.06321 0.8832,-0.294925 1.605818,-0.514912 0.722618,-0.219988 1.376259,-0.453776 1.452536,-0.519528 0.07627,-0.06575 0.256931,-0.119551 0.401454,-0.119551 0.144524,0 0.26277,-0.06453 0.26277,-0.143392 0,-0.07886 0.09854,-0.143392 0.218976,-0.143392 0.120437,0 0.218976,0.0485 0.218976,0.107782 0,0.176974 -2.728992,1.793289 -4.452497,2.637106 -1.731908,0.84793 -2.480672,1.096641 -5.075022,1.68573 -0.382534,0.08686 -1.515731,0.157929 -2.518215,0.157929 -1.002484,0 -1.822699,0.02806 -1.822699,0.06236 0,0.0343 0.07344,0.24401 0.163201,0.466024 0.08976,0.222015 0.215455,0.597243 0.279318,0.83384 0.06386,0.236597 0.214267,0.785071 0.334229,1.218833 0.188568,0.681827 0.535474,2.986314 0.536692,3.565229 2.9e-4,0.137836 0.118846,0.17095 0.401866,0.11225 0.2208,-0.0458 0.894149,-0.18641 1.496331,-0.312475 2.006501,-0.420055 4.591634,-0.55323 7.262481,-0.374133 5.762288,0.386398 6.262611,0.661909 1.231943,0.678391 -2.142769,0.007 -4.322946,0.08454 -4.844837,0.172256 -0.521891,0.08772 -1.605818,0.265368 -2.408727,0.394774 -1.428102,0.230168 -1.648647,0.281463 -2.992662,0.696034 -1.461339,0.45076 -1.902311,0.913524 -1.686774,1.77013 0.114624,0.455546 0.479265,2.291521 0.613215,3.08755 0.114604,0.681059 0.235245,0.751736 0.805879,0.47212 0.252187,-0.123574 0.520616,-0.22468 0.596509,-0.22468 0.07589,0 0.344994,-0.09223 0.598001,-0.20495 0.710353,-0.316486 3.051799,-1.071948 3.840249,-1.239049 0.389016,-0.08245 1.002918,-0.21186 1.364228,-0.287587 3.204614,-0.671653 8.444949,-0.735765 10.948763,-0.133951 0.281018,0.06754 1.003636,0.226931 1.605818,0.35419 0.602182,0.12726 1.259108,0.286047 1.459835,0.352862 0.200728,0.06682 0.660576,0.205113 1.021885,0.307331 0.361309,0.102218 0.722618,0.226958 0.802909,0.2772 0.08029,0.05024 0.540139,0.216068 1.021884,0.3685 0.481746,0.152433 1.171517,0.427655 1.532827,0.611607 l 0.656926,0.334456 -0.583934,-0.09218 c -0.556044,-0.08778 -1.260946,-0.276222 -1.897786,-0.507337 -0.571307,-0.207334 -2.923401,-0.661714 -4.233521,-0.817838 -0.714813,-0.08518 -0.551039,0.133215 0.291967,0.389345 1.384781,0.420739 4.890447,2.380652 4.890447,2.734105 0,0.182861 -0.03697,0.174951 -0.679626,-0.145436 -1.389618,-0.692767 -4.030837,-1.683281 -5.743648,-2.15399 -0.361309,-0.09929 -0.821157,-0.233643 -1.021885,-0.298551 -0.200726,-0.06491 -0.660575,-0.159625 -1.021884,-0.210479 -0.915429,-0.128845 -1.751802,-0.377731 -1.751802,-0.521295 0,-0.06638 -0.427002,-0.120695 -0.948893,-0.120695 -0.521891,0 -0.948893,0.05614 -0.948893,0.124757 0,0.13032 -0.731134,0.346681 -1.970777,0.583203 -1.3228,0.252389 -1.60265,0.316139 -1.897786,0.432322 -0.160581,0.06321 -0.8832,0.296708 -1.605818,0.518873 -0.722618,0.222167 -1.41239,0.448426 -1.532826,0.502799 -0.120437,0.05437 -0.383207,0.164919 -0.583934,0.245657 -0.200728,0.08074 -0.865726,0.378636 -1.477775,0.661995 -0.612048,0.283358 -1.154012,0.515197 -1.204364,0.515197 -0.261771,0 -0.01571,-0.261156 0.602134,-0.639082 0.381239,-0.233195 0.726007,-0.459038 0.766153,-0.501871 0.04014,-0.04284 0.204377,-0.148212 0.364959,-0.234174 0.160581,-0.08596 0.587584,-0.31603 0.948893,-0.511266 0.361309,-0.195235 0.919695,-0.458003 1.240859,-0.583928 0.488645,-0.191593 0.539089,-0.246401 0.309125,-0.335868 -0.153025,-0.05953 -0.394749,-0.03334 -0.545457,0.05911 -0.148857,0.09131 -0.403816,0.166022 -0.566577,0.166022 -0.162761,0 -0.41,0.05916 -0.549419,0.131477 -0.13942,0.07231 -0.647646,0.237412 -1.129391,0.366886 -0.481746,0.129475 -0.989972,0.296152 -1.129392,0.370395 -0.139419,0.07424 -0.32079,0.134987 -0.403045,0.134987 -0.08225,0 -0.428033,0.122071 -0.768394,0.271269 -0.340362,0.149198 -0.741303,0.311317 -0.890982,0.360264 -0.210659,0.06889 -0.251727,0.177679 -0.181781,0.481539 0.218365,0.948617 0.273085,1.898162 0.109388,1.898162 -0.09152,0 -0.166406,-0.07457 -0.166406,-0.165706 z m 8.029092,1.96e-4 c -0.762764,-0.06856 -2.191577,-0.08512 -3.175141,-0.03683 -0.983564,0.0483 -1.788298,0.03255 -1.788298,-0.03501 0,-0.118099 0.264833,-0.243026 1.532826,-0.723063 0.321164,-0.121585 0.715319,-0.273601 0.875902,-0.337812 1.104181,-0.441525 3.722579,-0.973983 3.722579,-0.756996 0,0.05448 -0.07881,0.313122 -0.175123,0.574754 -0.165438,0.44939 -0.147709,0.503478 0.320604,0.978077 0.277997,0.281729 0.403002,0.493407 0.284611,0.481948 -0.116115,-0.01124 -0.835196,-0.07652 -1.59796,-0.145076 z m 8.941489,-0.274719 c 0.537262,-0.439615 0.727066,-1.011114 0.401454,-1.208781 -0.08029,-0.04874 -0.145982,-0.179989 -0.145982,-0.291661 0,-0.214778 0.140814,-0.207158 1.751801,0.09479 0.4416,0.08277 0.91698,0.209321 1.0564,0.281223 0.13942,0.07191 0.38189,0.130732 0.538822,0.130732 0.156933,0 0.325933,0.06453 0.375556,0.143393 0.04962,0.07886 0.189094,0.143392 0.309937,0.143392 0.120842,0 0.578759,0.161316 1.017595,0.35848 0.438835,0.197164 0.861627,0.35848 0.939538,0.35848 0.07791,0 0.141657,0.05394 0.141657,0.119872 0,0.06593 -1.231735,0.115952 -2.73719,0.111159 -1.505455,-0.0048 -3.065654,0.03979 -3.467109,0.09907 l -0.729917,0.107785 z"
         id="path1" /><text
         xml:space="preserve"
         style="font-size:12px;line-height:0em;font-family:Audiowide;-inkscape-font-specification:Audiowide;letter-spacing:0.79375px;word-spacing:0px;text-orientation:upright;fill:#0044aa;stroke-width:1.2;stroke-linejoin:bevel;stroke-miterlimit:12.5;paint-order:markers stroke fill"
         x="23.605207"
         y="109.91978"
         id="text2"><tspan
           sodipodi:role="line"
           id="tspan2"
           style="font-style:normal;font-variant:normal;font-weight:normal;font-stretch:normal;font-size:12px;font-family:'Bodoni MT';-inkscape-font-specification:'Bodoni MT';stroke-width:1.2"
           x="23.605207"
           y="109.91978">La belle france</tspan></text><text
         xml:space="preserve"
         style="font-size:12px;line-height:0em;font-family:Audiowide;-inkscape-font-specification:Audiowide;letter-spacing:0.79375px;word-spacing:0px;text-orientation:upright;fill:#0044aa;stroke-width:1.2;stroke-linejoin:bevel;stroke-miterlimit:12.5;paint-order:markers stroke fill;filter:url(#filter3);opacity:0.5"
         x="24.663542"
         y="110.44894"
         id="text3"><tspan
           sodipodi:role="line"
           id="tspan3"
           style="font-style:normal;font-variant:normal;font-weight:normal;font-stretch:normal;font-size:12px;font-family:'Bodoni MT';-inkscape-font-specification:'Bodoni MT';stroke-width:1.2"
           x="24.663542"
           y="110.44894">La belle france</tspan></text></g></g></svg>
